<?xml version="1.0" encoding="UTF-8" standalone="no"?>
<svg width="451px" height="101px" viewBox="0 0 451 101" version="1.1" xmlns="http://www.w3.org/2000/svg" xmlns:xlink="http://www.w3.org/1999/xlink" xmlns:sketch="http://www.bohemiancoding.com/sketch/ns">
    <!-- Generator: Sketch 3.3.3 (12081) - http://www.bohemiancoding.com/sketch -->
    <title>logo</title>
    <desc>Created with Sketch.</desc>
    <defs></defs>
    <g id="Page-1" stroke="none" stroke-width="1" fill="none" fill-rule="evenodd" sketch:type="MSPage">
        <g id="Desktop-HD" sketch:type="MSArtboardGroup" transform="translate(-26.000000, -21.000000)" fill="#FA0008">
            <g id="Nav-bar" sketch:type="MSLayerGroup">
                <g id="logo" transform="translate(26.000000, 21.000000)">
                    <g id="Group" sketch:type="MSShapeGroup">
                        <path d="M100.916747,41.5626597 L90.1032813,29.6086033 C89.1329199,28.5357683 87.8668214,27.7785846 86.4670965,27.4338351 L79.7382382,25.7767182 L71.7508214,18.3280209 L70.3605216,5.78736326 C70.1508665,3.90652818 68.4943614,2.54861587 66.5946899,2.76115866 C64.7251786,2.97053862 63.3778152,4.66687474 63.5872608,6.5506618 L65.1212402,20.3594071 C65.2136057,21.1764739 65.5929117,21.9351336 66.192345,22.4945344 L77.8021232,33.3207223 L73.0418439,53.1477182 L60.4736427,52.8430313 C59.0265832,52.7858894 57.552924,53.4273132 56.5576386,54.5376806 L44.315963,68.1887056 C42.4232033,70.2987411 42.5892936,73.5505616 44.6850062,75.45438 C46.7708747,77.3581983 50.0107885,77.1909896 51.9010349,75.0845386 L62.5729158,63.1848831 L71.2293018,63.394263 L66.1456386,70.6968372 C65.3641971,71.8185908 65.0611294,73.2085532 65.3007351,74.5586639 L68.5538439,92.7979144 C68.9997536,95.2862255 71.1522259,97.0348539 73.5778152,97.0348539 C73.876694,97.0348539 74.1831129,97.0078643 74.4853429,96.9521983 C77.2634292,96.4499395 79.1128337,93.7756534 78.6145626,90.9792818 L75.7363614,74.8481691 L85.0713511,61.4345678 C85.4104435,60.9474906 85.6843984,60.4241461 85.8228419,59.8657996 C87.032809,54.9830084 90.5171458,40.3137599 90.5171458,40.3137599 L94.7789446,44.975785 L92.719885,57.4224008 C92.410115,59.289952 93.6642752,61.0562923 95.5203819,61.3679374 C95.7097207,61.3997766 95.8969651,61.4151691 96.0833717,61.4151691 C97.7199795,61.4151691 99.1634784,60.2259415 99.4397372,58.5481608 L101.771914,44.4482234 C101.944706,43.4063841 101.628234,42.3415616 100.916747,41.5626597 L100.916747,41.5626597 Z" id="Shape"></path>
                        <path d="M83.2152444,24.2159624 C86.7980205,26.6642109 91.6820821,25.7197871 94.1168871,22.1042401 C96.5483409,18.4922777 95.610653,13.5772255 92.0209651,11.1272902 C88.4281355,8.67735491 83.5509856,9.62346555 81.1161807,13.2356388 C78.6868214,16.8509749 79.6222053,21.7643403 83.2152444,24.2159624 L83.2152444,24.2159624 Z" id="Shape"></path>
                        <path d="M44.5187064,14.9037203 L61.7443491,2.21356576 C62.1670103,1.90381837 62.3398029,1.35622547 62.1804148,0.857340292 C62.0168378,0.360141962 61.5550103,0.0217181628 61.0322341,0.0217181628 L5.39573717,0.0217181628 C2.41553593,0.0215073069 0,2.45309812 0,5.45231315 L0,99.0822651 C0,99.862643 0.522776181,100.544129 1.27426694,100.740225 C2.02219713,100.936322 2.81138809,100.596 3.18713347,99.9145136 L17.9480205,73.2150898 C18.4207392,72.36281 18.7696756,71.4468518 18.989384,70.4942046 L24.089384,48.2507996 C24.5411581,46.2765553 25.5599014,44.4764781 27.0134538,43.0730209 L36.0822382,34.3298789 C37.64554,32.8243674 38.696538,30.863618 39.0959507,28.7234301 L40.4602793,21.3919687 C40.942423,18.7885303 42.3928337,16.4676388 44.5187064,14.9037203 L44.5187064,14.9037203 Z" id="Shape"></path>
                    </g>
                    <text id="Code-et-calanques" sketch:type="MSTextLayer" font-family="Avenir" font-size="36" font-weight="normal">
                        <tspan x="150" y="62">Code et calanques</tspan>
                    </text>
                </g>
            </g>
        </g>
    </g>
</svg>